SplineFontDB: 3.2
FontName: SuperMarioBrosFontRip
FullName: Super Mario Bros. Font Rip
FamilyName: Game Fonts
Weight: Regular
Copyright: Copyright (c) 1985, Nintendo\nCopyright (c) 2022, geno1024
UComments: "2022-11-6: Created with FontForge (http://fontforge.org)"
Version: 001.000
ItalicAngle: 0
UnderlinePosition: -100
UnderlineWidth: 50
Ascent: 800
Descent: 200
InvalidEm: 0
LayerCount: 3
Layer: 0 0 "+gMxmbwAA" 1
Layer: 1 0 "+Uk1mbwAA" 0
Layer: 2 0 "+gMxmbwAA 2" 1
XUID: [1021 992 -1131750718 3982697]
StyleMap: 0x0000
FSType: 0
OS2Version: 0
OS2_WeightWidthSlopeOnly: 0
OS2_UseTypoMetrics: 1
CreationTime: 1667718205
ModificationTime: 1667843196
OS2TypoAscent: 0
OS2TypoAOffset: 1
OS2TypoDescent: 0
OS2TypoDOffset: 1
OS2TypoLinegap: 90
OS2WinAscent: 0
OS2WinAOffset: 1
OS2WinDescent: 0
OS2WinDOffset: 1
HheadAscent: 0
HheadAOffset: 1
HheadDescent: 0
HheadDOffset: 1
OS2Vendor: 'PfEd'
MarkAttachClasses: 1
DEI: 91125
Encoding: ISO8859-1
UnicodeInterp: none
NameList: AGL For New Fonts
DisplaySize: -48
AntiAlias: 1
FitToEm: 0
WinInfo: 32 16 4
BeginPrivate: 0
EndPrivate
BeginChars: 256 36

StartChar: zero
Encoding: 48 48 0
Width: 1000
Flags: HW
LayerCount: 2
Fore
SplineSet
875 312.5 m 5
 875 625 l 5
 750 625 l 5
 750 750 l 5
 625 750 l 5
 625 875 l 5
 250 875 l 5
 250 750 l 5
 500 750 l 5
 500 625 l 5
 625 625 l 5
 625 125 l 5
 750 125 l 5
 750 250 l 5
 875 250 l 5
 875 312.5 l 5
625 125 m 5
 375 125 l 5
 375 250 l 5
 250 250 l 5
 250 750 l 5
 125 750 l 5
 125 625 l 5
 0 625 l 5
 0 250 l 5
 125 250 l 5
 125 125 l 5
 250 125 l 5
 250 0 l 5
 625 0 l 5
 625 125 l 5
EndSplineSet
EndChar

StartChar: one
Encoding: 49 49 1
Width: 1000
Flags: HW
LayerCount: 2
Fore
SplineSet
875 62.5 m 1
 875 125 l 1
 625 125 l 1
 625 875 l 1
 375 875 l 1
 375 750 l 1
 250 750 l 1
 250 625 l 1
 375 625 l 1
 375 125 l 1
 125 125 l 1
 125 0 l 1
 875 0 l 1
 875 62.5 l 1
EndSplineSet
EndChar

StartChar: two
Encoding: 50 50 2
Width: 1000
Flags: HW
LayerCount: 2
Fore
SplineSet
875 62.5 m 1
 875 125 l 1
 375 125 l 1
 375 250 l 1
 625 250 l 1
 625 375 l 1
 750 375 l 1
 750 500 l 1
 875 500 l 1
 875 750 l 1
 750 750 l 1
 750 875 l 1
 125 875 l 1
 125 750 l 1
 0 750 l 1
 0 625 l 1
 250 625 l 1
 250 750 l 1
 625 750 l 1
 625 625 l 1
 500 625 l 1
 500 500 l 1
 250 500 l 1
 250 375 l 1
 125 375 l 1
 125 250 l 1
 0 250 l 1
 0 0 l 1
 875 0 l 1
 875 62.5 l 1
EndSplineSet
EndChar

StartChar: three
Encoding: 51 51 3
Width: 1000
Flags: HW
LayerCount: 2
Fore
SplineSet
875 187.5 m 1
 875 375 l 1
 750 375 l 1
 750 500 l 1
 625 500 l 1
 625 625 l 1
 750 625 l 1
 750 750 l 1
 875 750 l 1
 875 875 l 1
 125 875 l 1
 125 750 l 1
 500 750 l 1
 500 625 l 1
 375 625 l 1
 375 500 l 1
 250 500 l 1
 250 375 l 1
 625 375 l 1
 625 125 l 1
 250 125 l 1
 250 250 l 1
 0 250 l 1
 0 125 l 1
 125 125 l 1
 125 0 l 1
 750 0 l 1
 750 125 l 1
 875 125 l 1
 875 187.5 l 1
EndSplineSet
EndChar

StartChar: four
Encoding: 52 52 4
Width: 1000
Flags: HW
LayerCount: 2
Fore
SplineSet
875 312.5 m 1
 875 375 l 1
 750 375 l 1
 750 875 l 1
 375 875 l 1
 375 750 l 1
 250 750 l 1
 250 625 l 1
 125 625 l 1
 125 500 l 1
 0 500 l 1
 0 250 l 1
 500 250 l 1
 500 0 l 1
 750 0 l 1
 750 250 l 1
 875 250 l 1
 875 312.5 l 1
500 437.5 m 1
 500 375 l 1
 250 375 l 1
 250 500 l 1
 375 500 l 1
 375 625 l 1
 500 625 l 1
 500 437.5 l 1
EndSplineSet
EndChar

StartChar: five
Encoding: 53 53 5
Width: 1000
Flags: HW
LayerCount: 2
Fore
SplineSet
875 187.5 m 1
 875 500 l 1
 750 500 l 1
 750 625 l 1
 250 625 l 1
 250 750 l 1
 750 750 l 1
 750 875 l 1
 0 875 l 1
 0 500 l 1
 625 500 l 1
 625 125 l 1
 250 125 l 1
 250 250 l 1
 0 250 l 1
 0 125 l 1
 125 125 l 1
 125 0 l 1
 750 0 l 1
 750 125 l 1
 875 125 l 1
 875 187.5 l 1
EndSplineSet
EndChar

StartChar: six
Encoding: 54 54 6
Width: 1000
Flags: HW
LayerCount: 2
Fore
SplineSet
875 187.5 m 1
 875 375 l 1
 750 375 l 1
 750 500 l 1
 250 500 l 1
 250 625 l 1
 375 625 l 1
 375 750 l 1
 750 750 l 1
 750 875 l 1
 250 875 l 1
 250 750 l 1
 125 750 l 1
 125 625 l 1
 0 625 l 1
 0 125 l 1
 125 125 l 1
 125 0 l 1
 750 0 l 1
 750 125 l 1
 875 125 l 1
 875 187.5 l 1
625 187.5 m 1
 625 125 l 1
 250 125 l 1
 250 375 l 1
 625 375 l 1
 625 187.5 l 1
EndSplineSet
EndChar

StartChar: seven
Encoding: 55 55 7
Width: 1000
Flags: HW
LayerCount: 2
Fore
SplineSet
875 687.5 m 1
 875 875 l 1
 0 875 l 1
 0 625 l 1
 250 625 l 1
 250 750 l 1
 625 750 l 1
 625 625 l 1
 500 625 l 1
 500 500 l 1
 375 500 l 1
 375 375 l 1
 250 375 l 1
 250 0 l 1
 500 0 l 1
 500 375 l 1
 625 375 l 1
 625 500 l 1
 750 500 l 1
 750 625 l 1
 875 625 l 1
 875 687.5 l 1
EndSplineSet
EndChar

StartChar: eight
Encoding: 56 56 8
Width: 1000
Flags: HW
LayerCount: 2
Fore
SplineSet
875 187.5 m 1
 875 375 l 1
 750 375 l 1
 750 500 l 1
 875 500 l 1
 875 750 l 1
 750 750 l 1
 750 875 l 1
 125 875 l 1
 125 750 l 1
 0 750 l 1
 0 500 l 1
 125 500 l 1
 125 375 l 1
 0 375 l 1
 0 125 l 1
 125 125 l 1
 125 0 l 1
 750 0 l 1
 750 125 l 1
 875 125 l 1
 875 187.5 l 1
625 187.5 m 1
 625 125 l 1
 250 125 l 1
 250 375 l 1
 625 375 l 1
 625 187.5 l 1
625 562.5 m 1
 625 500 l 1
 250 500 l 1
 250 750 l 1
 625 750 l 1
 625 562.5 l 1
EndSplineSet
EndChar

StartChar: nine
Encoding: 57 57 9
Width: 1000
Flags: HW
LayerCount: 2
Fore
SplineSet
875 312.5 m 1
 875 750 l 1
 750 750 l 1
 750 875 l 1
 125 875 l 1
 125 750 l 1
 0 750 l 1
 0 500 l 1
 125 500 l 1
 125 375 l 1
 625 375 l 1
 625 250 l 1
 500 250 l 1
 500 125 l 1
 125 125 l 1
 125 0 l 1
 625 0 l 1
 625 125 l 1
 750 125 l 1
 750 250 l 1
 875 250 l 1
 875 312.5 l 1
625 562.5 m 1
 625 500 l 1
 250 500 l 1
 250 750 l 1
 625 750 l 1
 625 562.5 l 1
EndSplineSet
EndChar

StartChar: A
Encoding: 65 65 10
Width: 1000
Flags: HW
LayerCount: 2
Fore
SplineSet
875 62.5 m 1
 875 125 l 1
 875 625 l 1
 750 625 l 1
 750 750 l 1
 625 750 l 1
 625 875 l 1
 250 875 l 1
 250 750 l 1
 125 750 l 1
 125 625 l 1
 0 625 l 1
 0 0 l 1
 250 0 l 1
 250 250 l 1
 625 250 l 1
 625 0 l 1
 875 0 l 1
 875 62.5 l 1
625 437.5 m 1
 625 375 l 1
 250 375 l 1
 250 625 l 1
 375 625 l 1
 375 750 l 1
 500 750 l 1
 500 625 l 1
 625 625 l 1
 625 437.5 l 1
EndSplineSet
EndChar

StartChar: B
Encoding: 66 66 11
Width: 1000
Flags: HW
LayerCount: 2
Fore
SplineSet
875 187.5 m 1
 875 250 l 1
 875 375 l 1
 750 375 l 1
 750 500 l 1
 875 500 l 1
 875 750 l 1
 750 750 l 1
 750 875 l 1
 0 875 l 1
 0 0 l 1
 750 0 l 1
 750 125 l 1
 875 125 l 1
 875 187.5 l 1
625 187.5 m 1
 625 125 l 1
 250 125 l 1
 250 375 l 1
 625 375 l 1
 625 187.5 l 1
625 562.5 m 1
 625 500 l 1
 250 500 l 1
 250 750 l 1
 625 750 l 1
 625 562.5 l 1
EndSplineSet
EndChar

StartChar: C
Encoding: 67 67 12
Width: 1000
Flags: HW
LayerCount: 2
Fore
SplineSet
875 187.5 m 1
 875 250 l 1
 625 250 l 1
 625 125 l 1
 375 125 l 1
 375 250 l 1
 250 250 l 1
 250 625 l 1
 375 625 l 1
 375 750 l 1
 625 750 l 1
 625 625 l 1
 875 625 l 1
 875 750 l 1
 750 750 l 1
 750 875 l 1
 250 875 l 1
 250 750 l 1
 125 750 l 1
 125 625 l 1
 0 625 l 1
 0 250 l 1
 125 250 l 1
 125 125 l 1
 250 125 l 1
 250 0 l 1
 750 0 l 1
 750 125 l 1
 875 125 l 1
 875 187.5 l 1
EndSplineSet
EndChar

StartChar: D
Encoding: 68 68 13
Width: 1000
Flags: HW
LayerCount: 2
Fore
SplineSet
875 312.5 m 1
 875 375 l 1
 875 625 l 1
 750 625 l 1
 750 750 l 1
 625 750 l 1
 625 875 l 1
 0 875 l 1
 0 0 l 1
 625 0 l 1
 625 125 l 1
 750 125 l 1
 750 250 l 1
 875 250 l 1
 875 312.5 l 1
625 312.5 m 1
 625 250 l 1
 500 250 l 1
 500 125 l 1
 250 125 l 1
 250 750 l 1
 500 750 l 1
 500 625 l 1
 625 625 l 1
 625 312.5 l 1
EndSplineSet
EndChar

StartChar: E
Encoding: 69 69 14
Width: 1000
Flags: HW
LayerCount: 2
Fore
SplineSet
875 62.5 m 1
 875 125 l 1
 250 125 l 1
 250 375 l 1
 750 375 l 1
 750 500 l 1
 250 500 l 1
 250 750 l 1
 875 750 l 1
 875 875 l 1
 0 875 l 1
 0 0 l 1
 875 0 l 1
 875 62.5 l 1
EndSplineSet
EndChar

StartChar: F
Encoding: 70 70 15
Width: 1000
Flags: HW
LayerCount: 2
Fore
SplineSet
875 812.5 m 1
 875 875 l 1
 0 875 l 1
 0 0 l 1
 250 0 l 1
 250 375 l 1
 750 375 l 1
 750 500 l 1
 250 500 l 1
 250 750 l 1
 875 750 l 1
 875 812.5 l 1
EndSplineSet
EndChar

StartChar: G
Encoding: 71 71 16
Width: 1000
Flags: HW
LayerCount: 2
Fore
SplineSet
875 62.5 m 1
 875 125 l 1
 875 500 l 1
 500 500 l 1
 500 375 l 1
 625 375 l 1
 625 125 l 1
 375 125 l 1
 375 250 l 1
 250 250 l 1
 250 625 l 1
 375 625 l 1
 375 750 l 1
 875 750 l 1
 875 875 l 1
 250 875 l 1
 250 750 l 1
 125 750 l 1
 125 625 l 1
 0 625 l 1
 0 250 l 1
 125 250 l 1
 125 125 l 1
 250 125 l 1
 250 0 l 1
 875 0 l 1
 875 62.5 l 1
EndSplineSet
EndChar

StartChar: H
Encoding: 72 72 17
Width: 1000
Flags: HW
LayerCount: 2
Fore
SplineSet
875 62.5 m 1
 875 125 l 1
 875 875 l 1
 625 875 l 1
 625 500 l 1
 250 500 l 1
 250 875 l 1
 0 875 l 1
 0 0 l 1
 250 0 l 1
 250 375 l 1
 625 375 l 1
 625 0 l 1
 875 0 l 1
 875 62.5 l 1
EndSplineSet
EndChar

StartChar: I
Encoding: 73 73 18
Width: 1000
Flags: HW
LayerCount: 2
Fore
SplineSet
875 62.5 m 1
 875 125 l 1
 625 125 l 1
 625 750 l 1
 875 750 l 1
 875 875 l 1
 125 875 l 1
 125 750 l 1
 375 750 l 1
 375 125 l 1
 125 125 l 1
 125 0 l 1
 875 0 l 1
 875 62.5 l 1
EndSplineSet
EndChar

StartChar: J
Encoding: 74 74 19
Width: 1000
Flags: HW
LayerCount: 2
Fore
SplineSet
875 187.5 m 1
 875 250 l 1
 875 875 l 1
 375 875 l 1
 375 750 l 1
 625 750 l 1
 625 125 l 1
 250 125 l 1
 250 375 l 1
 0 375 l 1
 0 125 l 1
 125 125 l 1
 125 0 l 1
 750 0 l 1
 750 125 l 1
 875 125 l 1
 875 187.5 l 1
EndSplineSet
EndChar

StartChar: K
Encoding: 75 75 20
Width: 1000
Flags: HW
LayerCount: 2
Fore
SplineSet
875 62.5 m 1
 875 125 l 1
 750 125 l 1
 750 250 l 1
 625 250 l 1
 625 375 l 1
 500 375 l 1
 500 500 l 1
 625 500 l 1
 625 625 l 1
 750 625 l 1
 750 750 l 1
 875 750 l 1
 875 875 l 1
 625 875 l 1
 625 750 l 1
 500 750 l 1
 500 625 l 1
 375 625 l 1
 375 500 l 1
 250 500 l 1
 250 875 l 1
 0 875 l 1
 0 0 l 1
 250 0 l 1
 250 250 l 1
 375 250 l 1
 375 125 l 1
 500 125 l 1
 500 0 l 1
 875 0 l 1
 875 62.5 l 1
EndSplineSet
EndChar

StartChar: L
Encoding: 76 76 21
Width: 1000
Flags: HW
LayerCount: 2
Fore
SplineSet
875 62.5 m 1
 875 125 l 1
 375 125 l 1
 375 875 l 1
 125 875 l 1
 125 0 l 1
 875 0 l 1
 875 62.5 l 1
EndSplineSet
EndChar

StartChar: M
Encoding: 77 77 22
Width: 1000
Flags: HW
LayerCount: 2
Fore
SplineSet
875 62.5 m 1
 875 125 l 1
 875 875 l 1
 625 875 l 1
 625 750 l 1
 500 750 l 1
 500 625 l 1
 375 625 l 1
 375 750 l 1
 250 750 l 1
 250 875 l 1
 0 875 l 1
 0 0 l 1
 250 0 l 1
 250 375 l 1
 375 375 l 1
 375 250 l 1
 500 250 l 1
 500 375 l 1
 625 375 l 1
 625 0 l 1
 875 0 l 1
 875 62.5 l 1
EndSplineSet
EndChar

StartChar: N
Encoding: 78 78 23
Width: 1000
Flags: HW
LayerCount: 2
Fore
SplineSet
875 62.5 m 1
 875 125 l 1
 875 875 l 1
 625 875 l 1
 625 500 l 1
 500 500 l 1
 500 625 l 1
 375 625 l 1
 375 750 l 1
 250 750 l 1
 250 875 l 1
 0 875 l 1
 0 0 l 1
 250 0 l 1
 250 375 l 1
 375 375 l 1
 375 250 l 1
 500 250 l 1
 500 125 l 1
 625 125 l 1
 625 0 l 1
 875 0 l 1
 875 62.5 l 1
EndSplineSet
EndChar

StartChar: O
Encoding: 79 79 24
Width: 1000
Flags: HW
LayerCount: 2
Fore
SplineSet
875 187.5 m 1
 875 250 l 1
 875 750 l 1
 750 750 l 1
 750 875 l 1
 125 875 l 1
 125 750 l 1
 0 750 l 1
 0 125 l 1
 125 125 l 1
 125 0 l 1
 750 0 l 1
 750 125 l 1
 875 125 l 1
 875 187.5 l 1
625 187.5 m 1
 625 125 l 1
 250 125 l 1
 250 750 l 1
 625 750 l 1
 625 187.5 l 1
EndSplineSet
EndChar

StartChar: P
Encoding: 80 80 25
Width: 1000
Flags: HW
LayerCount: 2
Fore
SplineSet
875 437.5 m 1
 875 500 l 1
 875 750 l 1
 750 750 l 1
 750 875 l 1
 0 875 l 1
 0 0 l 1
 250 0 l 1
 250 250 l 1
 750 250 l 1
 750 375 l 1
 875 375 l 1
 875 437.5 l 1
625 437.5 m 1
 625 375 l 1
 250 375 l 1
 250 750 l 1
 625 750 l 1
 625 437.5 l 1
EndSplineSet
EndChar

StartChar: Q
Encoding: 81 81 26
Width: 1000
Flags: HW
LayerCount: 2
Fore
SplineSet
875 62.5 m 1
 875 125 l 1
 750 125 l 1
 750 0 l 1
 875 0 l 1
 875 62.5 l 1
875 312.5 m 1
 875 375 l 1
 875 750 l 1
 750 750 l 1
 750 875 l 1
 125 875 l 1
 125 750 l 1
 0 750 l 1
 0 125 l 1
 125 125 l 1
 125 0 l 1
 625 0 l 1
 625 125 l 1
 750 125 l 1
 750 250 l 1
 875 250 l 1
 875 312.5 l 1
625 437.5 m 1
 625 375 l 1
 375 375 l 1
 375 250 l 1
 500 250 l 1
 500 125 l 1
 250 125 l 1
 250 750 l 1
 625 750 l 1
 625 437.5 l 1
EndSplineSet
EndChar

StartChar: R
Encoding: 82 82 27
Width: 1000
Flags: HW
LayerCount: 2
Fore
SplineSet
875 62.5 m 1
 875 125 l 1
 750 125 l 1
 750 250 l 1
 625 250 l 1
 625 375 l 1
 875 375 l 1
 875 750 l 1
 750 750 l 1
 750 875 l 1
 0 875 l 1
 0 0 l 1
 250 0 l 1
 250 250 l 1
 375 250 l 1
 375 125 l 1
 500 125 l 1
 500 0 l 1
 875 0 l 1
 875 62.5 l 1
625 562.5 m 1
 625 500 l 1
 500 500 l 1
 500 375 l 1
 250 375 l 1
 250 750 l 1
 625 750 l 1
 625 562.5 l 1
EndSplineSet
EndChar

StartChar: S
Encoding: 83 83 28
Width: 1000
Flags: HW
LayerCount: 2
Fore
SplineSet
875 187.5 m 1
 875 250 l 1
 875 375 l 1
 750 375 l 1
 750 500 l 1
 250 500 l 1
 250 750 l 1
 500 750 l 1
 500 625 l 1
 750 625 l 1
 750 750 l 1
 625 750 l 1
 625 875 l 1
 125 875 l 1
 125 750 l 1
 0 750 l 1
 0 500 l 1
 125 500 l 1
 125 375 l 1
 625 375 l 1
 625 125 l 1
 250 125 l 1
 250 250 l 1
 0 250 l 1
 0 125 l 1
 125 125 l 1
 125 0 l 1
 750 0 l 1
 750 125 l 1
 875 125 l 1
 875 187.5 l 1
EndSplineSet
EndChar

StartChar: T
Encoding: 84 84 29
Width: 1000
Flags: HW
LayerCount: 2
Fore
SplineSet
875 812.5 m 1
 875 875 l 1
 125 875 l 1
 125 750 l 1
 375 750 l 1
 375 0 l 1
 625 0 l 1
 625 750 l 1
 875 750 l 1
 875 812.5 l 1
EndSplineSet
EndChar

StartChar: U
Encoding: 85 85 30
Width: 1000
Flags: HW
LayerCount: 2
Fore
SplineSet
875 187.5 m 1
 875 250 l 1
 875 875 l 1
 625 875 l 1
 625 125 l 1
 250 125 l 1
 250 875 l 1
 0 875 l 1
 0 125 l 1
 125 125 l 1
 125 0 l 1
 750 0 l 1
 750 125 l 1
 875 125 l 1
 875 187.5 l 1
EndSplineSet
EndChar

StartChar: V
Encoding: 86 86 31
Width: 1000
Flags: HW
LayerCount: 2
Fore
SplineSet
875 437.5 m 1
 875 500 l 1
 875 875 l 1
 625 875 l 1
 625 500 l 1
 500 500 l 1
 500 375 l 1
 375 375 l 1
 375 500 l 1
 250 500 l 1
 250 875 l 1
 0 875 l 1
 0 375 l 1
 125 375 l 1
 125 250 l 1
 250 250 l 1
 250 125 l 1
 375 125 l 1
 375 0 l 1
 500 0 l 1
 500 125 l 1
 625 125 l 1
 625 250 l 1
 750 250 l 1
 750 375 l 1
 875 375 l 1
 875 437.5 l 1
EndSplineSet
EndChar

StartChar: W
Encoding: 87 87 32
Width: 1000
Flags: HW
LayerCount: 2
Fore
SplineSet
875 62.5 m 1
 875 125 l 1
 875 875 l 1
 625 875 l 1
 625 500 l 1
 500 500 l 1
 500 625 l 1
 375 625 l 1
 375 500 l 1
 250 500 l 1
 250 875 l 1
 0 875 l 1
 0 0 l 1
 250 0 l 1
 250 125 l 1
 375 125 l 1
 375 250 l 1
 500 250 l 1
 500 125 l 1
 625 125 l 1
 625 0 l 1
 875 0 l 1
 875 62.5 l 1
EndSplineSet
EndChar

StartChar: X
Encoding: 88 88 33
Width: 1000
Flags: HW
LayerCount: 2
Fore
SplineSet
875 62.5 m 1
 875 125 l 1
 875 250 l 1
 750 250 l 1
 750 375 l 1
 625 375 l 1
 625 500 l 1
 750 500 l 1
 750 625 l 1
 875 625 l 1
 875 875 l 1
 625 875 l 1
 625 750 l 1
 500 750 l 1
 500 625 l 1
 375 625 l 1
 375 750 l 1
 250 750 l 1
 250 875 l 1
 0 875 l 1
 0 625 l 1
 125 625 l 1
 125 500 l 1
 250 500 l 1
 250 375 l 1
 125 375 l 1
 125 250 l 1
 0 250 l 1
 0 0 l 1
 250 0 l 1
 250 125 l 1
 375 125 l 1
 375 250 l 1
 500 250 l 1
 500 125 l 1
 625 125 l 1
 625 0 l 1
 875 0 l 1
 875 62.5 l 1
EndSplineSet
EndChar

StartChar: Y
Encoding: 89 89 34
Width: 1000
Flags: HW
LayerCount: 2
Fore
SplineSet
875 562.5 m 1
 875 625 l 1
 875 875 l 1
 625 875 l 1
 625 500 l 1
 375 500 l 1
 375 875 l 1
 125 875 l 1
 125 500 l 1
 250 500 l 1
 250 375 l 1
 375 375 l 1
 375 0 l 1
 625 0 l 1
 625 375 l 1
 750 375 l 1
 750 500 l 1
 875 500 l 1
 875 562.5 l 1
EndSplineSet
EndChar

StartChar: Z
Encoding: 90 90 35
Width: 1000
Flags: HW
LayerCount: 2
Fore
SplineSet
875 62.5 m 1
 875 125 l 1
 375 125 l 1
 375 250 l 1
 500 250 l 1
 500 375 l 1
 625 375 l 1
 625 500 l 1
 750 500 l 1
 750 625 l 1
 875 625 l 1
 875 875 l 1
 0 875 l 1
 0 750 l 1
 500 750 l 1
 500 625 l 1
 375 625 l 1
 375 500 l 1
 250 500 l 1
 250 375 l 1
 125 375 l 1
 125 250 l 1
 0 250 l 1
 0 0 l 1
 875 0 l 1
 875 62.5 l 1
EndSplineSet
EndChar
